<svg xmlns="http://www.w3.org/2000/svg" version="1.1" xmlns:xlink="http://www.w3.org/1999/xlink" xmlns:svgjs="http://svgjs.dev/svgjs" viewBox="0 0 800 800"><defs><linearGradient x1="50%" y1="0%" x2="50%" y2="100%" id="ffflurry-grad" gradientTransform="rotate(270)"><stop stop-color="#f1f1f1" stop-opacity="1" offset="0%"></stop><stop stop-color="#212529" stop-opacity="1" offset="45%"></stop><stop stop-color="#0d6efd" stop-opacity="1" offset="100%"></stop></linearGradient></defs><rect width="100%" height="100%" fill="#f1f1f1"></rect><g fill="url(#ffflurry-grad)"><rect width="407" height="3" x="167.5" y="254.5" rx="1.5" transform="rotate(45, 371, 256)" opacity="0.52"></rect><rect width="294" height="3" x="351" y="764.5" rx="1.5" transform="rotate(45, 498, 766)" opacity="0.35"></rect><rect width="254" height="3" x="44" y="594.5" rx="1.5" transform="rotate(45, 171, 596)" opacity="0.21"></rect><rect width="569" height="3" x="-212.5" y="639.5" rx="1.5" transform="rotate(45, 72, 641)" opacity="0.76"></rect><rect width="60" height="3" x="556" y="35.5" rx="1.5" transform="rotate(45, 586, 37)" opacity="0.10"></rect><rect width="237" height="3" x="544.5" y="90.5" rx="1.5" transform="rotate(45, 663, 92)" opacity="0.22"></rect><rect width="99" height="3" x="7.5" y="740.5" rx="1.5" transform="rotate(45, 57, 742)" opacity="0.26"></rect><rect width="571" height="3" x="212.5" y="357.5" rx="1.5" transform="rotate(45, 498, 359)" opacity="0.36"></rect><rect width="64" height="3" x="748" y="269.5" rx="1.5" transform="rotate(45, 780, 271)" opacity="0.76"></rect><rect width="486" height="3" x="-155" y="471.5" rx="1.5" transform="rotate(45, 88, 473)" opacity="0.89"></rect><rect width="484" height="3" x="470" y="585.5" rx="1.5" transform="rotate(45, 712, 587)" opacity="0.31"></rect><rect width="659" height="3" x="334.5" y="467.5" rx="1.5" transform="rotate(45, 664, 469)" opacity="0.55"></rect><rect width="214" height="3" x="350" y="46.5" rx="1.5" transform="rotate(45, 457, 48)" opacity="0.96"></rect><rect width="454" height="3" x="370" y="540.5" rx="1.5" transform="rotate(45, 597, 542)" opacity="0.86"></rect><rect width="562" height="3" x="215" y="677.5" rx="1.5" transform="rotate(45, 496, 679)" opacity="0.37"></rect><rect width="525" height="3" x="419.5" y="336.5" rx="1.5" transform="rotate(45, 682, 338)" opacity="0.19"></rect><rect width="131" height="3" x="697.5" y="337.5" rx="1.5" transform="rotate(45, 763, 339)" opacity="0.35"></rect><rect width="94" height="3" x="177" y="499.5" rx="1.5" transform="rotate(45, 224, 501)" opacity="0.16"></rect><rect width="190" height="3" x="323" y="598.5" rx="1.5" transform="rotate(45, 418, 600)" opacity="0.58"></rect><rect width="565" height="3" x="9.5" y="276.5" rx="1.5" transform="rotate(45, 292, 278)" opacity="0.93"></rect><rect width="402" height="3" x="49" y="759.5" rx="1.5" transform="rotate(45, 250, 761)" opacity="0.09"></rect><rect width="417" height="3" x="48.5" y="574.5" rx="1.5" transform="rotate(45, 257, 576)" opacity="0.42"></rect><rect width="65" height="3" x="155.5" y="28.5" rx="1.5" transform="rotate(45, 188, 30)" opacity="0.73"></rect><rect width="137" height="3" x="203.5" y="656.5" rx="1.5" transform="rotate(45, 272, 658)" opacity="0.61"></rect><rect width="273" height="3" x="181.5" y="733.5" rx="1.5" transform="rotate(45, 318, 735)" opacity="0.79"></rect><rect width="46" height="3" x="678" y="241.5" rx="1.5" transform="rotate(45, 701, 243)" opacity="0.75"></rect><rect width="105" height="3" x="20.5" y="273.5" rx="1.5" transform="rotate(45, 73, 275)" opacity="0.58"></rect><rect width="258" height="3" x="-95" y="424.5" rx="1.5" transform="rotate(45, 34, 426)" opacity="0.87"></rect><rect width="201" height="3" x="478.5" y="307.5" rx="1.5" transform="rotate(45, 579, 309)" opacity="0.27"></rect><rect width="320" height="3" x="108" y="132.5" rx="1.5" transform="rotate(45, 268, 134)" opacity="0.43"></rect><rect width="138" height="3" x="258" y="42.5" rx="1.5" transform="rotate(45, 327, 44)" opacity="0.75"></rect><rect width="254" height="3" x="212" y="413.5" rx="1.5" transform="rotate(45, 339, 415)" opacity="0.32"></rect><rect width="413" height="3" x="-40.5" y="174.5" rx="1.5" transform="rotate(45, 166, 176)" opacity="0.17"></rect><rect width="327" height="3" x="266.5" y="447.5" rx="1.5" transform="rotate(45, 430, 449)" opacity="0.43"></rect><rect width="568" height="3" x="463" y="411.5" rx="1.5" transform="rotate(45, 747, 413)" opacity="0.29"></rect><rect width="641" height="3" x="290.5" y="394.5" rx="1.5" transform="rotate(45, 611, 396)" opacity="0.70"></rect><rect width="195" height="3" x="125.5" y="250.5" rx="1.5" transform="rotate(45, 223, 252)" opacity="0.69"></rect><rect width="50" height="3" x="372" y="350.5" rx="1.5" transform="rotate(45, 397, 352)" opacity="0.57"></rect><rect width="296" height="3" x="-40" y="542.5" rx="1.5" transform="rotate(45, 108, 544)" opacity="0.50"></rect><rect width="239" height="3" x="652.5" y="115.5" rx="1.5" transform="rotate(45, 772, 117)" opacity="0.48"></rect><rect width="352" height="3" x="151" y="344.5" rx="1.5" transform="rotate(45, 327, 346)" opacity="0.58"></rect><rect width="270" height="3" x="-95" y="331.5" rx="1.5" transform="rotate(45, 40, 333)" opacity="0.94"></rect><rect width="218" height="3" x="286" y="732.5" rx="1.5" transform="rotate(45, 395, 734)" opacity="0.39"></rect><rect width="78" height="3" x="704" y="254.5" rx="1.5" transform="rotate(45, 743, 256)" opacity="0.30"></rect><rect width="325" height="3" x="-129.5" y="540.5" rx="1.5" transform="rotate(45, 33, 542)" opacity="0.92"></rect><rect width="248" height="3" x="635" y="499.5" rx="1.5" transform="rotate(45, 759, 501)" opacity="0.30"></rect><rect width="294" height="3" x="54" y="327.5" rx="1.5" transform="rotate(45, 201, 329)" opacity="0.84"></rect><rect width="456" height="3" x="484" y="763.5" rx="1.5" transform="rotate(45, 712, 765)" opacity="0.70"></rect><rect width="321" height="3" x="283.5" y="177.5" rx="1.5" transform="rotate(45, 444, 179)" opacity="0.78"></rect><rect width="262" height="3" x="218" y="566.5" rx="1.5" transform="rotate(45, 349, 568)" opacity="0.66"></rect><rect width="415" height="3" x="-70.5" y="250.5" rx="1.5" transform="rotate(45, 137, 252)" opacity="0.88"></rect><rect width="538" height="3" x="469" y="39.5" rx="1.5" transform="rotate(45, 738, 41)" opacity="0.16"></rect><rect width="416" height="3" x="413" y="237.5" rx="1.5" transform="rotate(45, 621, 239)" opacity="0.20"></rect><rect width="69" height="3" x="306.5" y="491.5" rx="1.5" transform="rotate(45, 341, 493)" opacity="0.61"></rect><rect width="294" height="3" x="441" y="140.5" rx="1.5" transform="rotate(45, 588, 142)" opacity="0.62"></rect><rect width="374" height="3" x="74" y="353.5" rx="1.5" transform="rotate(45, 261, 355)" opacity="0.45"></rect><rect width="48" height="3" x="246" y="439.5" rx="1.5" transform="rotate(45, 270, 441)" opacity="0.70"></rect><rect width="87" height="3" x="334.5" y="126.5" rx="1.5" transform="rotate(45, 378, 128)" opacity="0.53"></rect><rect width="95" height="3" x="14.5" y="65.5" rx="1.5" transform="rotate(45, 62, 67)" opacity="0.17"></rect><rect width="256" height="3" x="649" y="195.5" rx="1.5" transform="rotate(45, 777, 197)" opacity="0.63"></rect><rect width="257" height="3" x="604.5" y="156.5" rx="1.5" transform="rotate(45, 733, 158)" opacity="0.07"></rect><rect width="282" height="3" x="-31" y="405.5" rx="1.5" transform="rotate(45, 110, 407)" opacity="0.27"></rect><rect width="328" height="3" x="22" y="96.5" rx="1.5" transform="rotate(45, 186, 98)" opacity="0.84"></rect><rect width="451" height="3" x="-82.5" y="351.5" rx="1.5" transform="rotate(45, 143, 353)" opacity="0.92"></rect><rect width="376" height="3" x="334" y="582.5" rx="1.5" transform="rotate(45, 522, 584)" opacity="0.68"></rect><rect width="247" height="3" x="392.5" y="129.5" rx="1.5" transform="rotate(45, 516, 131)" opacity="0.84"></rect><rect width="73" height="3" x="400.5" y="286.5" rx="1.5" transform="rotate(45, 437, 288)" opacity="0.08"></rect><rect width="434" height="3" x="-50" y="731.5" rx="1.5" transform="rotate(45, 167, 733)" opacity="0.18"></rect><rect width="57" height="3" x="126.5" y="482.5" rx="1.5" transform="rotate(45, 155, 484)" opacity="0.68"></rect><rect width="419" height="3" x="314.5" y="454.5" rx="1.5" transform="rotate(45, 524, 456)" opacity="0.85"></rect><rect width="59" height="3" x="168.5" y="417.5" rx="1.5" transform="rotate(45, 198, 419)" opacity="0.45"></rect><rect width="44" height="3" x="648" y="173.5" rx="1.5" transform="rotate(45, 670, 175)" opacity="1.00"></rect><rect width="563" height="3" x="34.5" y="198.5" rx="1.5" transform="rotate(45, 316, 200)" opacity="0.96"></rect><rect width="208" height="3" x="494" y="718.5" rx="1.5" transform="rotate(45, 598, 720)" opacity="0.97"></rect><rect width="340" height="3" x="341" y="242.5" rx="1.5" transform="rotate(45, 511, 244)" opacity="0.44"></rect><rect width="227" height="3" x="-66.5" y="184.5" rx="1.5" transform="rotate(45, 47, 186)" opacity="0.55"></rect><rect width="116" height="3" x="669" y="680.5" rx="1.5" transform="rotate(45, 727, 682)" opacity="0.46"></rect></g></svg>